<svg width="42" height="50" viewBox="0 0 42 50" fill="none" xmlns="http://www.w3.org/2000/svg">
<path d="M20.755 50C21.193 50 21.8501 49.8526 22.4585 49.5086C36.476 41.8182 41.3432 38.2555 41.3432 29.312V10.7617C41.3432 7.81327 40.1994 6.75676 37.7658 5.70025C35.0645 4.54545 25.9872 1.35135 23.3346 0.44226C22.5315 0.17199 21.5824 0 20.755 0C19.9276 0 18.9785 0.22113 18.1754 0.44226C15.5227 1.20393 6.44543 4.57002 3.74414 5.70025C1.31054 6.73219 0.166748 7.81327 0.166748 10.7617V29.312C0.166748 38.2555 5.05828 41.769 19.0271 49.5086C19.6599 49.8526 20.3169 50 20.755 50ZM22.0691 4.96314C25.2571 6.24079 32.1929 8.72236 35.8433 10.0246C36.5247 10.2948 36.695 10.6634 36.695 11.5479V28.4029C36.695 35.602 33.1177 37.543 22.1421 44.226C21.4607 44.6437 21.12 44.7912 20.7793 44.7912V4.69287C21.12 4.69287 21.4851 4.76658 22.0691 4.96314Z" fill="#3E3E3E"/>
</svg>
